<?xml version="1.0" encoding="UTF-8"?>
<svg width="96px" height="25px" viewBox="0 0 96 25" version="1.1" xmlns="http://www.w3.org/2000/svg" xmlns:xlink="http://www.w3.org/1999/xlink">
    <title>MadeLogo@1x</title>
    <g id="Initial-exploration" stroke="none" stroke-width="1" fill="none" fill-rule="evenodd">
        <g id="Icons-/-Brand-/-Logo" transform="translate(1.000000, 1.000000)" fill="#131413">
            <path d="M94.024008,-0.0927088363 L94.024008,3.79526799 L81.7421338,3.79526799 L81.7421338,10.1052632 L92.2513664,10.1052632 L92.2513664,13.8657653 L81.7421338,13.8657653 L81.7421338,20.1757605 L94.024008,20.1757605 L94.024008,24 L78.0702333,24 L78.0702333,-0.0927088363 L94.024008,-0.0927088363 Z M62.3063846,-0.0927088363 C68.890482,-0.0927088363 74.0817897,5.32496379 74.0817897,11.9536456 C74.0817897,18.6460647 68.890482,24 62.3063846,24 L62.3063846,24 L54.3294972,24 L54.3294972,-0.0927088363 Z M40.4015987,-0.0927088363 L50.3410536,24 L46.3526099,24 L44.7065855,19.8570739 L33.690884,19.8570739 L32.0448596,24 L27.9931073,24 L37.9958708,-0.0927088363 L40.4015987,-0.0927088363 Z M2.92289003,-0.0927088363 L11.9760241,10.2964751 L21.0924667,-0.0927088363 L24.0046637,-0.0927088363 L24.0046637,24 L20.3327632,24 L20.3327632,6.66344761 L11.9760241,16.0965717 L3.68259358,6.66344761 L3.68259358,24 L-0.0526155613,24 L-0.0526155613,-0.0927088363 L2.92289003,-0.0927088363 Z M62.4330018,3.79526799 L58.0013978,3.79526799 L58.0013978,20.1120232 L62.4330018,20.1120232 C66.8012973,20.1120232 70.3465805,16.4789957 70.3465805,11.9536456 C70.3465805,7.49203283 66.8012973,3.79526799 62.4330018,3.79526799 L62.4330018,3.79526799 Z M39.1987348,6.72718493 L35.400217,16.0328344 L42.9339439,16.0328344 L39.1987348,6.72718493 Z" id="Logo"></path>
        </g>
    </g>
</svg>